<svg xmlns="http://www.w3.org/2000/svg" version="1.0" width="512.000000pt" height="512.000000pt" viewBox="0 0 512.000000 512.000000" preserveAspectRatio="xMidYMid meet">

<g transform="translate(0.000000,512.000000) scale(0.100000,-0.100000)" fill="#00582b" stroke="none">
<path d="M2046 4550 c-72 -9 -86 -32 -86 -134 1 -201 87 -366 246 -473 100 -66 266 -105 378 -89 66 10 78 33 77 143 -1 156 -49 277 -153 389 -112 120 -300 187 -462 164z m250 -180 c121 -59 211 -189 222 -316 4 -60 3 -64 -16 -64 -71 0 -190 44 -259 97 -71 55 -143 201 -143 292 l0 37 68 -8 c40 -5 91 -20 128 -38z" fill="#00582b"/>
<path d="M4265 4359 c-114 -17 -210 -61 -306 -140 -60 -50 -63 -52 -93 -40 -244 99 -452 71 -608 -83 -53 -52 -125 -154 -134 -192 -5 -19 -14 -22 -87 -27 -45 -3 -163 -22 -262 -42 l-179 -36 -186 37 c-146 30 -209 38 -300 38 -110 1 -118 0 -180 -31 -117 -58 -262 -210 -321 -338 -13 -27 -24 -51 -25 -53 -1 -1 -41 11 -90 27 -463 154 -972 -84 -1153 -539 -29 -74 -61 -206 -61 -253 0 -22 -5 -25 -54 -29 -125 -10 -208 -128 -176 -249 12 -46 86 -129 114 -129 10 0 19 -20 26 -58 50 -250 99 -417 176 -600 89 -211 220 -422 352 -562 l79 -85 5 -110 c5 -130 24 -181 85 -236 76 -68 -35 -64 1633 -64 l1515 0 57 28 c100 49 138 126 138 280 l0 89 86 97 c246 276 422 650 510 1084 16 81 30 125 41 132 76 47 122 119 123 189 0 51 -34 120 -75 153 l-33 26 53 64 c169 206 185 433 46 645 -27 40 -62 86 -78 101 l-30 28 23 57 c36 88 47 157 42 267 -8 160 -59 274 -176 391 -79 80 -192 139 -307 159 -89 16 -105 16 -190 4z m155 -140 c127 -20 242 -95 310 -201 53 -82 74 -165 68 -277 -4 -82 -8 -98 -46 -173 -23 -46 -42 -91 -42 -101 0 -10 35 -55 79 -101 85 -91 125 -160 141 -245 30 -159 -80 -355 -242 -431 l-63 -30 -398 0 -399 0 36 48 c20 26 74 103 121 172 l83 126 64 13 c93 19 264 77 333 114 73 39 90 72 58 115 -27 36 -61 38 -122 7 -53 -26 -223 -86 -229 -81 -2 2 20 48 49 102 46 89 51 103 47 150 -8 88 -65 144 -152 146 -84 1 -101 -15 -245 -232 -72 -110 -134 -200 -138 -200 -3 0 -3 78 0 173 4 94 3 177 -1 183 -13 21 -52 35 -77 28 -49 -12 -59 -51 -59 -244 -1 -96 3 -204 7 -240 l8 -65 -103 -110 c-57 -61 -120 -131 -142 -157 -21 -26 -43 -45 -49 -41 -17 10 -1 257 22 347 26 97 26 119 4 138 -42 36 -91 27 -112 -20 -30 -64 -52 -194 -58 -329 l-6 -143 -79 0 -80 0 7 43 c4 23 19 62 33 87 85 149 93 200 48 327 -43 121 -31 238 35 328 88 122 83 109 90 229 8 135 30 198 96 280 127 156 306 185 514 85 44 -21 87 -39 95 -39 8 0 47 33 87 74 80 81 148 121 241 141 77 17 87 17 166 4z m-2050 -519 c188 -41 255 -42 440 -2 80 17 173 34 208 38 l62 7 0 -68 c0 -62 -2 -70 -35 -108 -47 -55 -91 -144 -106 -215 -16 -78 -6 -203 21 -277 31 -80 28 -117 -14 -179 -41 -59 -61 -110 -71 -184 l-7 -52 -368 0 -368 0 -7 57 c-18 148 -94 328 -189 452 -48 63 -152 162 -199 189 -23 14 -27 22 -22 42 26 103 205 299 303 331 47 15 203 1 352 -31z m1760 -283 c0 -16 -77 -160 -153 -287 -84 -141 -225 -344 -283 -409 l-56 -61 -59 0 c-32 0 -59 3 -59 6 0 3 41 49 91 102 110 117 261 316 389 514 62 95 101 147 113 148 9 0 17 -6 17 -13z m-2726 -57 c281 -72 511 -313 571 -600 22 -104 23 -100 -40 -100 -52 0 -55 2 -60 28 -34 173 -87 276 -199 387 -92 92 -177 142 -301 176 -114 31 -287 24 -395 -16 -220 -81 -388 -273 -436 -495 l-17 -80 -54 0 c-47 0 -53 2 -53 21 0 54 36 174 80 265 161 334 540 507 904 414z m-274 -442 c0 -180 -2 -210 -14 -198 -44 48 -236 290 -236 299 0 22 188 110 238 111 9 0 12 -49 12 -212z m230 193 c71 -22 172 -80 168 -97 -4 -15 -241 -313 -250 -314 -5 0 -8 97 -8 215 0 178 2 215 14 215 8 0 42 -9 76 -19z m-477 -327 l97 -119 -151 -3 c-84 -1 -153 -1 -155 0 -17 18 78 252 100 245 6 -2 55 -57 109 -123z m780 89 c32 -51 67 -147 67 -183 l0 -30 -146 0 c-82 0 -144 4 -142 9 6 16 183 240 190 240 4 1 18 -16 31 -36z m3169 -370 c31 -28 22 -70 -19 -92 -16 -8 -603 -11 -2303 -11 l-2281 0 -24 25 c-29 28 -31 42 -9 73 l15 22 2301 0 c2127 0 2303 -1 2320 -17z m-148 -355 c-14 -62 -27 -125 -31 -141 l-6 -27 -2130 2 -2131 3 -23 94 c-12 52 -25 114 -29 138 l-6 43 2190 0 2190 0 -24 -112z m-92 -314 c8 -8 -65 -193 -110 -278 l-37 -71 -1929 0 -1930 0 -38 75 c-45 90 -108 244 -108 265 0 13 241 15 2073 15 1141 0 2076 -3 2079 -6z m-267 -543 c-20 -27 -70 -88 -111 -135 l-75 -86 -1621 0 -1621 0 -61 66 c-61 67 -156 187 -156 198 0 3 828 6 1840 6 l1840 0 -35 -49z m-235 -433 c0 -93 -21 -132 -79 -148 -27 -7 -496 -9 -1518 -8 -1587 3 -1501 0 -1533 52 -8 12 -16 56 -18 99 l-5 77 1577 0 1576 0 0 -72z" fill="#00582b"/>
</g>
</svg>