<svg xmlns="http://www.w3.org/2000/svg" version="1.0" width="512.000000pt" height="512.000000pt" viewBox="0 0 512.000000 512.000000" preserveAspectRatio="xMidYMid meet">

<g transform="translate(0.000000,512.000000) scale(0.100000,-0.100000)" fill="#00582b" stroke="none">
<path d="M3610 5106 c-136 -39 -258 -157 -288 -279 -11 -41 -14 -44 -65 -60 -145 -46 -252 -171 -278 -327 -10 -55 -18 -72 -54 -110 -23 -25 -51 -61 -63 -80 -50 -87 -66 -220 -37 -318 14 -47 14 -57 0 -104 -29 -98 -13 -234 37 -316 11 -18 19 -34 17 -35 -2 -1 -26 -13 -54 -27 -71 -36 -161 -126 -174 -175 -12 -45 -14 -722 -2 -818 6 -50 5 -57 -8 -52 -60 23 -216 55 -319 66 -171 17 -282 3 -662 -81 -173 -39 -321 -70 -328 -70 -10 0 -12 37 -10 166 l3 166 72 18 c350 89 622 364 720 725 l27 100 4 555 c2 305 1 574 -3 598 -7 50 -54 108 -102 128 -26 12 -205 14 -971 14 l-938 0 -44 -22 c-33 -17 -51 -35 -68 -68 l-23 -45 3 -585 4 -585 26 -95 c50 -184 131 -325 262 -456 131 -131 284 -219 459 -264 l72 -18 3 -272 2 -272 -44 -39 c-63 -56 -149 -172 -195 -264 -39 -78 -81 -209 -81 -250 0 -17 -18 -28 -88 -58 -195 -83 -340 -194 -393 -302 -23 -48 -24 -60 -27 -270 -3 -205 -2 -225 18 -277 79 -213 448 -395 1035 -513 895 -179 2115 -179 3010 0 584 118 956 301 1034 511 19 49 21 77 21 258 0 150 -4 215 -15 252 -52 172 -311 335 -718 449 -54 16 -96 33 -94 38 2 6 37 17 79 24 340 57 624 321 720 668 21 75 22 104 26 498 l3 419 -26 54 c-42 85 -138 149 -315 208 -58 19 -154 45 -215 57 l-110 21 -80 78 c-106 102 -148 124 -245 124 -105 1 -138 -19 -306 -186 l-142 -140 -56 46 c-106 86 -192 116 -335 116 -105 0 -162 -18 -213 -67 -33 -31 -46 -24 -79 45 -33 67 -32 151 3 221 l26 53 -23 47 c-63 125 -26 257 92 332 l45 28 2 83 c2 91 14 125 67 177 48 49 87 64 174 70 l80 6 6 80 c8 114 46 177 132 220 115 57 242 22 324 -89 25 -34 46 -63 48 -65 2 -2 29 23 59 56 30 32 78 72 108 88 49 28 61 30 153 30 85 0 106 -3 143 -23 112 -60 173 -152 180 -272 2 -41 -1 -93 -7 -115 -16 -61 -64 -129 -120 -172 -38 -29 -49 -43 -46 -58 27 -107 14 -169 -57 -266 -10 -14 -3 -27 43 -78 l54 -61 34 37 c57 64 95 157 99 243 4 72 6 77 47 121 140 150 163 393 55 573 -137 228 -417 308 -654 187 l-79 -40 -28 20 c-15 11 -53 31 -84 45 -69 32 -194 41 -265 20z m-1630 -566 l0 -80 -905 0 -905 0 0 80 0 80 905 0 905 0 0 -80z m0 -346 c0 -79 -2 -95 -14 -91 -122 47 -262 23 -359 -63 l-37 -32 -37 32 c-101 89 -248 111 -373 56 -36 -16 -74 -29 -85 -29 -11 0 -49 13 -85 29 -93 41 -199 41 -285 1 -33 -15 -74 -42 -92 -59 l-32 -31 -38 33 c-95 84 -244 111 -355 65 -16 -7 -18 1 -18 89 l0 96 905 0 905 0 0 -96z m-1576 -258 c56 -33 89 -93 88 -162 -1 -85 -36 -134 -177 -252 l-120 -100 -12 46 c-6 27 -11 133 -12 248 l-1 201 48 21 c65 29 134 28 186 -2z m582 -19 l89 -44 89 44 c109 52 165 57 231 18 49 -28 69 -55 84 -112 15 -54 -1 -130 -37 -176 -21 -27 -235 -212 -353 -305 -14 -11 -42 8 -200 141 -131 109 -189 165 -202 191 -68 144 11 286 159 286 39 0 70 -10 140 -43z m945 22 l49 -21 0 -181 c0 -173 -13 -307 -30 -307 -5 0 -61 44 -127 99 -141 117 -168 157 -168 247 0 49 5 68 27 102 53 79 150 103 249 61z m2259 -325 c37 -24 367 -352 401 -398 36 -48 39 -110 9 -149 -22 -28 -59 -38 -220 -60 l-95 -13 0 81 c0 72 -3 86 -28 123 -15 23 -46 54 -69 69 -41 27 -44 28 -192 28 -83 0 -167 -2 -186 -5 -28 -4 -35 -1 -38 14 -3 13 34 57 130 153 73 74 147 144 163 154 37 23 92 24 125 3z m-3589 -101 c8 -9 110 -97 227 -195 l214 -178 -358 2 -359 3 -32 50 c-18 27 -33 54 -32 60 0 10 307 272 320 274 4 1 13 -7 20 -16z m995 -4 c10 -12 81 -73 157 -136 l137 -115 -27 -49 c-14 -27 -32 -54 -38 -59 -8 -7 -141 -9 -363 -8 l-351 3 209 173 c114 95 216 182 226 193 22 24 27 24 50 -2z m1846 -72 c63 -29 130 -94 160 -157 31 -63 36 -177 11 -245 l-18 -49 -50 2 c-57 4 -252 30 -276 37 -9 3 -39 65 -73 151 -48 119 -57 153 -53 185 6 46 28 75 72 96 45 20 162 10 227 -20z m1363 -108 c79 -33 145 -82 145 -108 0 -27 -78 -88 -136 -105 -19 -6 -22 -2 -27 48 -6 61 -33 119 -80 172 l-32 37 30 -7 c17 -4 62 -21 100 -37z m-1830 -26 c4 -16 22 -70 42 -121 19 -51 33 -95 31 -98 -12 -11 -150 51 -205 93 -55 40 -38 75 61 127 61 32 64 32 71 -1z m1135 -183 c24 -24 25 -33 5 -92 l-16 -45 -67 -7 c-37 -3 -111 -6 -165 -6 -89 0 -98 2 -93 18 3 9 10 39 15 65 5 26 10 49 12 51 22 18 110 35 192 35 84 1 100 -2 117 -19z m-1037 -220 c560 -146 1443 -111 1828 74 l50 23 -3 -65 c-3 -65 -4 -67 -45 -98 -77 -59 -273 -119 -498 -154 -587 -89 -1327 -10 -1562 167 -31 23 -33 28 -33 88 l0 64 75 -35 c42 -19 126 -48 188 -64z m-1453 50 c-76 -62 -265 -130 -402 -145 l-58 -6 -2 -260 -3 -260 -82 -33 -83 -33 0 293 0 293 -57 6 c-107 12 -217 44 -310 91 -51 25 -97 52 -104 60 -10 12 70 14 557 14 l569 0 -25 -20z m1405 -368 c217 -63 436 -92 760 -99 496 -11 847 42 1148 172 16 7 17 -2 17 -97 0 -178 -56 -334 -169 -474 -94 -115 -256 -214 -408 -248 -107 -24 -124 -22 -151 18 -13 19 -38 45 -56 57 -31 21 -34 28 -39 90 -19 221 -238 366 -438 289 -52 -19 -52 -19 -113 1 -82 28 -180 23 -251 -13 -49 -25 -145 -116 -145 -138 0 -6 -15 -8 -42 -4 -30 5 -66 24 -121 65 -43 32 -98 70 -122 85 -59 34 -75 85 -82 256 l-6 128 74 -34 c41 -19 106 -43 144 -54z m-629 -287 c110 -20 178 -39 268 -77 60 -26 206 -105 206 -112 0 -2 -23 -17 -50 -35 -63 -41 -124 -120 -152 -197 -25 -67 -29 -208 -9 -258 10 -26 9 -30 -11 -44 -77 -52 -154 -177 -164 -269 l-7 -51 -71 -17 c-283 -64 -430 -75 -1032 -75 -574 0 -557 -2 -628 60 -64 57 -81 101 -80 210 2 160 54 303 158 438 67 85 154 152 264 204 69 33 147 53 505 133 232 51 436 95 452 98 75 10 269 6 351 -8z m1117 -156 c21 -6 56 -26 76 -45 21 -19 41 -34 44 -34 3 0 24 16 47 35 53 44 106 59 159 45 107 -29 148 -131 101 -251 -12 -28 -19 -52 -18 -53 2 -1 29 -10 60 -19 67 -21 115 -58 134 -104 19 -44 18 -73 -6 -140 -11 -32 -20 -60 -20 -64 0 -3 26 -13 58 -22 69 -19 104 -44 126 -91 34 -72 14 -162 -47 -207 -31 -23 -38 -24 -234 -27 l-202 -3 6 48 c7 65 -12 155 -50 226 -49 93 -164 185 -255 203 -27 5 -27 6 -28 97 -1 114 -23 177 -93 264 l-50 62 21 27 c21 26 89 63 118 64 8 0 32 -5 53 -11z m-372 -174 c54 -19 115 -76 140 -130 18 -39 25 -128 13 -170 -3 -13 -33 -33 -81 -56 l-75 -36 -68 35 c-58 30 -80 35 -158 40 -81 4 -91 7 -96 26 -9 35 -7 96 6 140 15 51 99 137 148 153 51 16 121 15 171 -2z m-182 -491 c106 -31 175 -124 175 -234 1 -119 -76 -215 -193 -242 -104 -24 -213 27 -266 124 -73 134 -9 299 137 349 65 23 81 23 147 3z m526 -9 c146 -60 192 -263 87 -385 -67 -80 -174 -108 -267 -73 -55 21 -56 22 -26 103 35 94 26 209 -23 321 -5 12 3 20 31 32 66 28 133 29 198 2z m1096 -99 c239 -96 369 -198 369 -290 0 -175 -422 -365 -1055 -475 -387 -67 -695 -92 -1206 -98 -552 -7 -869 11 -1296 72 -608 88 -1062 246 -1190 414 -81 105 -12 210 210 321 l82 41 18 -60 c25 -84 90 -176 157 -221 115 -77 97 -75 561 -78 l417 -3 11 -57 c14 -69 58 -149 103 -187 18 -16 58 -40 88 -54 l55 -26 410 0 410 0 58 28 c36 18 75 49 105 83 26 29 54 54 63 54 27 0 129 38 156 58 26 19 26 19 96 -17 68 -35 73 -36 181 -36 105 0 115 2 176 32 36 18 85 52 110 77 l46 45 244 3 c240 3 246 4 300 29 80 37 125 81 162 157 29 59 33 76 33 149 0 46 3 83 8 83 4 0 58 -20 118 -44z m-2054 -318 c31 -64 89 -126 151 -160 96 -55 75 -58 -361 -58 -368 0 -380 1 -417 21 -39 22 -80 82 -80 117 0 22 33 32 108 32 98 0 429 51 573 89 3 0 14 -18 26 -41z m-2154 -373 c343 -164 870 -272 1597 -327 216 -16 964 -16 1180 0 581 44 1011 117 1362 233 133 44 320 128 392 179 l46 31 0 -43 c0 -207 -569 -426 -1360 -523 -404 -49 -1099 -70 -1528 -46 -822 47 -1504 202 -1779 404 -79 59 -113 108 -113 165 l0 43 46 -31 c25 -18 95 -56 157 -85z" fill="#00582b"/>
<path d="M1019 3771 c-34 -34 -37 -68 -9 -104 26 -33 63 -41 99 -23 55 29 60 105 9 140 -34 24 -66 19 -99 -13z" fill="#00582b"/>
<path d="M1692 1973 c-22 -9 -44 -63 -37 -94 16 -71 117 -83 151 -17 35 68 -39 141 -114 111z" fill="#00582b"/>
<path d="M1205 1809 c-31 -18 -45 -40 -45 -74 0 -41 23 -72 59 -80 53 -11 100 27 101 81 0 53 -70 98 -115 73z" fill="#00582b"/>
<path d="M2034 1810 c-29 -11 -54 -49 -54 -78 0 -31 52 -82 84 -82 14 0 37 11 52 24 69 59 1 171 -82 136z" fill="#00582b"/>
<path d="M2185 1529 c-188 -33 -309 -39 -752 -39 l-443 0 0 -86 0 -86 488 5 c371 3 513 8 597 21 159 22 245 38 250 46 5 8 -25 143 -34 150 -3 3 -51 -2 -106 -11z" fill="#00582b"/>
<path d="M3859 4607 c-57 -22 -105 -55 -146 -101 -35 -40 -42 -43 -100 -48 -123 -12 -230 -86 -281 -196 -20 -45 -26 -72 -26 -133 0 -67 5 -86 33 -143 49 -100 141 -168 244 -182 l48 -7 -3 84 -3 83 -30 6 c-104 21 -160 155 -102 241 52 78 137 100 232 59 26 -11 48 -20 51 -20 2 0 11 26 20 58 9 31 26 70 37 86 23 33 89 65 133 66 51 0 115 -40 141 -90 28 -52 29 -91 3 -147 l-19 -42 57 -51 c31 -28 61 -49 66 -47 5 2 23 27 39 57 42 73 49 188 18 271 -27 72 -84 137 -152 174 -45 24 -68 30 -139 32 -54 2 -98 -2 -121 -10z" fill="#00582b"/>
</g>
</svg>