<svg xmlns="http://www.w3.org/2000/svg" version="1.0" width="512.000000pt" height="512.000000pt" viewBox="0 0 512.000000 512.000000" preserveAspectRatio="xMidYMid meet">

<g transform="translate(0.000000,512.000000) scale(0.100000,-0.100000)" fill="#00582b" stroke="none">
<path d="M1145 4935 l-25 -24 0 -351 0 -351 25 -24 c24 -25 25 -25 223 -25 l199 0 22 -62 c54 -151 57 -172 39 -235 -9 -32 -27 -85 -39 -118 -17 -45 -23 -81 -23 -145 l0 -85 -126 0 c-127 -1 -199 -12 -302 -46 l-58 -19 -57 44 c-148 114 -338 173 -469 146 -178 -37 -306 -185 -371 -428 -24 -89 -27 -114 -27 -294 l-1 -198 -53 0 c-43 0 -58 -5 -77 -25 l-25 -24 0 -265 c0 -289 13 -428 54 -587 139 -531 539 -971 1051 -1155 l90 -32 5 -148 c4 -118 9 -157 24 -187 24 -49 95 -110 144 -125 56 -17 1688 -17 1744 0 49 15 120 76 144 125 15 30 20 69 24 186 l5 149 70 24 c109 37 320 147 425 222 121 86 296 261 382 382 77 107 174 289 217 407 77 210 101 381 101 736 l0 268 -25 24 c-23 24 -31 25 -134 25 l-109 0 -18 52 c-93 280 -314 511 -581 608 -177 64 -375 75 -553 33 l-75 -18 -28 70 c-40 99 -44 147 -17 220 66 181 72 263 30 381 -12 33 -23 67 -27 77 -5 16 50 17 1061 17 l1067 0 24 25 25 24 0 351 0 351 -25 24 -24 25 -1951 0 -1951 0 -24 -25z m3815 -215 l0 -80 -1840 0 -1840 0 0 80 0 80 1840 0 1840 0 0 -80z m-3349 -278 c-10 -20 -24 -56 -30 -80 l-12 -42 -144 0 -145 0 0 80 0 80 175 0 175 0 -19 -38z m394 -14 c-56 -121 -55 -249 3 -382 36 -84 36 -168 0 -252 -15 -33 -32 -91 -39 -127 -15 -81 -2 -167 39 -261 19 -45 26 -78 26 -126 0 -48 -7 -81 -26 -126 -58 -133 -59 -261 -3 -382 l24 -52 -110 0 -110 0 -42 88 c-53 110 -57 181 -14 279 15 34 32 94 39 132 13 79 2 145 -47 281 -32 87 -30 135 9 227 57 136 57 253 -2 387 -42 97 -38 169 15 279 l42 87 110 0 110 0 -24 -52z m400 0 c-56 -121 -55 -249 3 -382 36 -84 36 -168 0 -252 -59 -134 -59 -251 -2 -387 37 -87 40 -140 14 -212 -12 -33 -31 -94 -42 -135 -19 -68 -20 -83 -9 -160 9 -69 9 -94 -2 -130 l-14 -45 -72 -3 -71 -3 -43 88 c-53 110 -57 182 -15 279 15 33 32 91 38 127 15 82 2 171 -38 261 -36 84 -36 168 0 252 15 33 32 91 38 127 15 82 2 171 -38 261 -42 97 -38 169 15 279 l42 87 110 0 110 0 -24 -52z m400 -1 c-14 -29 -30 -87 -36 -128 -12 -84 -2 -146 46 -279 32 -87 30 -135 -9 -227 -55 -131 -55 -254 0 -384 13 -32 24 -64 24 -71 0 -7 -28 -29 -63 -49 -34 -21 -92 -64 -128 -97 l-65 -60 15 70 c18 85 6 174 -36 271 -37 85 -37 169 -1 253 59 135 59 253 0 388 -42 97 -38 169 15 279 l42 87 110 0 110 0 -24 -53z m2155 -27 l0 -80 -1010 0 c-683 0 -1010 3 -1010 10 0 6 16 42 35 80 l35 70 975 0 975 0 0 -80z m-4196 -941 c119 -44 285 -180 384 -314 85 -116 132 -236 132 -341 0 -83 -1 -84 -89 -84 l-76 0 -1 83 c-1 130 -53 217 -166 277 -57 31 -70 34 -148 35 -99 0 -159 -24 -223 -88 -62 -62 -92 -137 -92 -229 l1 -78 -83 0 -82 0 -8 58 c-15 109 -6 279 20 383 47 183 120 282 237 320 38 13 131 2 194 -22z m796 -110 c35 -5 68 -16 73 -22 24 -35 -32 -234 -63 -221 -8 3 -59 7 -113 9 l-98 3 -50 73 c-27 41 -60 88 -74 105 l-25 31 57 11 c32 7 67 13 78 16 40 8 152 6 215 -5z m1910 -93 c204 -54 369 -172 478 -339 37 -57 92 -172 92 -192 0 -3 -57 -5 -127 -5 l-128 0 -30 51 c-34 58 -112 138 -174 180 -168 112 -407 115 -593 7 -58 -35 -145 -124 -183 -187 l-30 -51 -128 0 -128 0 6 23 c28 92 107 219 190 302 116 115 260 190 430 224 66 13 256 6 325 -13z m-2604 -312 c73 -35 107 -110 85 -185 l-12 -39 -140 0 -139 0 -11 28 c-17 42 -5 107 26 148 47 61 123 80 191 48z m684 -4 c11 -6 19 -26 23 -58 3 -26 17 -74 31 -105 l25 -57 -93 0 -93 0 -6 98 c-3 53 -9 108 -13 121 -7 24 -7 24 50 17 32 -3 66 -11 76 -16z m1904 -104 c39 -19 89 -53 111 -75 l39 -41 -324 0 -324 0 38 39 c43 44 133 96 192 111 22 5 74 8 118 5 65 -3 91 -9 150 -39z m866 -436 l0 -160 -335 0 -336 0 -24 -25 c-16 -15 -25 -36 -25 -55 0 -19 9 -40 25 -55 l24 -25 331 0 c275 0 330 -2 330 -14 0 -29 -32 -184 -52 -251 -141 -483 -521 -871 -998 -1023 -211 -67 -217 -67 -1025 -67 -805 0 -788 -1 -1010 66 -446 135 -835 516 -984 964 -29 88 -71 271 -71 310 0 13 193 15 1530 15 l1531 0 24 25 c33 32 33 78 0 110 l-24 25 -1536 0 -1535 0 0 160 0 160 2080 0 2080 0 0 -160z m-2808 -1830 c46 -6 373 -10 728 -10 576 0 755 6 853 26 l27 6 0 -112 c0 -104 -1 -112 -25 -135 l-24 -25 -831 0 -831 0 -24 25 c-24 23 -25 31 -25 136 l0 111 35 -6 c19 -4 72 -11 117 -16z" fill="#00582b"/>
</g>
</svg>